<svg xmlns="http://www.w3.org/2000/svg" viewBox="0 0 24 24">
  <!-- Rocket + porthole cutout via evenodd -->
  <path fill="currentColor" fill-rule="evenodd" d="
    M12 2
    C13 5 14.5 8 14.5 10.5
    L14.5 14
    L17 17 L14.5 15.5
    L15 19
    L9 19
    L9.5 15.5 L7 17
    L9.5 14
    L9.5 10.5
    C9.5 8 11 5 12 2 Z
    M10.2 12.5
    A1.8 1.8 0 1 0 13.8 12.5
    A1.8 1.8 0 1 0 10.2 12.5 Z
  "/>
  <!-- Engine nozzle (below body) -->
  <path fill="currentColor" d="M9 19 L8 21.5 L16 21.5 L15 19 Z"/>
  <!-- G arc inside porthole (shows against sidebar bg through cutout) -->
  <!-- Arc starts at 3-o'clock, sweeps clockwise (large arc) to ~1-o'clock -->
  <path fill="none" stroke="currentColor" stroke-width="0.85" stroke-linecap="round"
        d="M13.2 12.5 A1.2 1.2 0 1 1 13.2 12.04"/>
  <!-- G crossbar: center to right opening -->
  <line x1="12" y1="12.5" x2="13.2" y2="12.5"
        stroke="currentColor" stroke-width="0.85" stroke-linecap="round"/>
</svg>
